<?xml version="1.0" encoding="UTF-8"?>
<svg version="1.1" xmlns="http://www.w3.org/2000/svg" width="313" height="313">
<path d="M0 0 C17.71660971 -0.07034531 35.43318275 -0.1231124 53.14990234 -0.15543652 C61.3776519 -0.17084975 69.60531426 -0.19183204 77.83300781 -0.22631836 C85.01135128 -0.25639177 92.18963154 -0.27561519 99.36803627 -0.28226548 C103.16253113 -0.28614765 106.95684529 -0.29515276 110.75128174 -0.31719017 C141.18434257 -0.48694419 168.70942991 2.39680675 191.4375 24.75 C208.78496143 42.56022193 216.57362076 64.39116042 216.41748047 89.03466797 C215.8208342 112.96431097 204.59101728 133.60719684 187.46875 149.9453125 C169.86735713 165.97444612 147.12148303 171.10072105 124.04296875 171.17578125 C122.69069151 171.18623082 121.33842151 171.19765754 119.98616028 171.21000671 C114.28401832 171.26199464 108.58201265 171.31038861 102.87963867 171.32592773 C99.37528864 171.33609607 95.87153756 171.36563046 92.36742592 171.40724754 C90.40967648 171.4252819 88.45177256 171.42293025 86.49394226 171.41999817 C74.37509365 171.58453425 65.83212896 174.27401613 57.09375 182.77734375 C51.63290808 188.57439422 47.99739159 195.50236271 48.00125122 203.637146 C48.27997559 206.44431924 48.65006033 209.22894863 49.03515625 212.0234375 C52.57100182 248.08415911 52.57100182 248.08415911 41.39338017 262.43629456 C36.39937349 268.50568359 30.83562081 273.99178093 25.0625 279.3125 C24.54108051 279.79394218 24.01966103 280.27538437 23.48244095 280.77141571 C4.70317062 298 4.70317062 298 1 298 C0.93003979 286.9502521 0.87695751 275.90055816 0.84456348 264.85063267 C0.82900457 259.71796832 0.80794821 254.58545711 0.77368164 249.45288086 C0.74073537 244.48615482 0.72307381 239.51957473 0.71536827 234.55274773 C0.7098873 232.67162725 0.69918751 230.79051342 0.68280983 228.90945625 C0.4541416 201.51997487 6.11117733 176.91820031 25 156 C25.74894531 155.15695313 26.49789062 154.31390625 27.26953125 153.4453125 C43.41940419 136.25092042 66.36437227 126.26596647 89.885849 125.52035522 C95.34079051 125.41882258 100.79420089 125.38457158 106.25 125.375 C109.58564033 125.35852531 112.9210106 125.33625406 116.25653076 125.30337524 C118.31346696 125.28411098 120.37052593 125.27436934 122.42755127 125.27645874 C136.95989787 125.16983697 149.11028648 122.5267185 159.95703125 112.37109375 C166.78773686 104.44329584 170.55102932 93.85362141 170.24609375 83.4140625 C169.0225193 71.41137976 163.74302508 61.48052773 154.50390625 53.7578125 C145.93152924 47.73976312 137.95624071 45.66867629 127.63769531 46.4453125 C47.14281948 51.76317281 47.14281948 51.76317281 27.34103012 34.57216644 C18.30148313 26.3179127 10.71830247 16.29761201 4.29820251 5.91055298 C3.02291452 4.0337231 1.61552094 2.5819262 0 1 C0 0.67 0 0.34 0 0 Z " fill="#915EFF" transform="translate(49,14)"/>
</svg>
