<svg xmlns="http://www.w3.org/2000/svg" xmlns:xlink="http://www.w3.org/1999/xlink" width="1587" zoomAndPan="magnify" viewBox="0 0 1190.25 1683.749945" height="2245" preserveAspectRatio="xMidYMid meet" version="1.0"><defs><clipPath id="73e7fb12bb"><path d="M 273 419.40625 L 735 419.40625 L 735 1056 L 273 1056 Z M 273 419.40625 " clip-rule="nonzero"/></clipPath><clipPath id="84a4f96982"><path d="M 199.433594 844 L 990 844 L 990 1217.652344 L 199.433594 1217.652344 Z M 199.433594 844 " clip-rule="nonzero"/></clipPath><clipPath id="4d7ee7b12a"><path d="M 285 431.398438 L 747 431.398438 L 747 1068 L 285 1068 Z M 285 431.398438 " clip-rule="nonzero"/></clipPath><clipPath id="8dbfd676b9"><path d="M 211.425781 855 L 1002 855 L 1002 1229.644531 L 211.425781 1229.644531 Z M 211.425781 855 " clip-rule="nonzero"/></clipPath></defs><g clip-path="url(#73e7fb12bb)"><path fill="#00cedc" d="M 273.75 1055.898438 L 508.960938 528.445312 L 557.628906 419.40625 L 606.292969 528.445312 L 734.539062 816.117188 C 697.839844 821.421875 662.183594 828.734375 627.652344 838.136719 L 557.628906 681.121094 L 456.203125 908.847656 C 390.191406 946.375 329.402344 995.070312 273.75 1055.898438 Z M 273.75 1055.898438 " fill-opacity="1" fill-rule="nonzero"/></g><g clip-path="url(#84a4f96982)"><path fill="#355cb0" d="M 199.792969 1217.652344 C 371.5625 943.722656 614.082031 820.214844 989.824219 847.777344 C 910.5625 857.902344 837.164062 874.457031 770.433594 896.3125 L 913.695312 1217.570312 L 796.933594 1217.570312 L 670.9375 935.285156 C 524.78125 1002.460938 420.144531 1100.332031 366.984375 1217.570312 L 199.792969 1217.570312 Z M 199.792969 1217.652344 " fill-opacity="1" fill-rule="evenodd"/></g><g clip-path="url(#4d7ee7b12a)"><path fill="#00cedc" d="M 285.742188 1067.890625 L 520.957031 540.4375 L 569.621094 431.398438 L 618.285156 540.4375 L 746.53125 828.109375 C 709.832031 833.414062 674.175781 840.726562 639.644531 850.128906 L 569.621094 693.113281 L 468.195312 920.839844 C 402.183594 958.367188 341.394531 1007.0625 285.742188 1067.890625 Z M 285.742188 1067.890625 " fill-opacity="1" fill-rule="nonzero"/></g><g clip-path="url(#8dbfd676b9)"><path fill="#355cb0" d="M 211.785156 1229.644531 C 383.554688 955.714844 626.074219 832.207031 1001.816406 859.769531 C 922.554688 869.894531 849.160156 886.449219 782.425781 908.304688 L 925.6875 1229.5625 L 808.925781 1229.5625 L 682.929688 947.277344 C 536.773438 1014.453125 432.136719 1112.324219 378.976562 1229.5625 L 211.785156 1229.5625 Z M 211.785156 1229.644531 " fill-opacity="1" fill-rule="evenodd"/></g></svg>