<svg xmlns="http://www.w3.org/2000/svg" xmlns:xlink="http://www.w3.org/1999/xlink" width="1587" zoomAndPan="magnify" viewBox="0 0 1190.25 1683.749945" height="2245" preserveAspectRatio="xMidYMid meet" version="1.0"><defs><clipPath id="687ae0a5a1"><path d="M 146 158.257812 L 861 158.257812 L 861 1145 L 146 1145 Z M 146 158.257812 " clip-rule="nonzero"/></clipPath><clipPath id="60f139c8e1"><path d="M 31 816 L 1189.5 816 L 1189.5 1394.980469 L 31 1394.980469 Z M 31 816 " clip-rule="nonzero"/></clipPath><clipPath id="e47eb7e32f"><path d="M 146 158.257812 L 861 158.257812 L 861 1145 L 146 1145 Z M 146 158.257812 " clip-rule="nonzero"/></clipPath><clipPath id="64892dca8e"><path d="M 31 816 L 1189.5 816 L 1189.5 1394.980469 L 31 1394.980469 Z M 31 816 " clip-rule="nonzero"/></clipPath></defs><g clip-path="url(#687ae0a5a1)"><path fill="#00cedc" d="M 146.066406 1144.375 L 510.804688 327.199219 L 586.269531 158.257812 L 661.734375 327.199219 L 860.601562 772.886719 C 803.691406 781.101562 748.402344 792.429688 694.855469 806.996094 L 586.269531 563.734375 L 428.992188 916.550781 C 326.632812 974.6875 232.363281 1050.132812 146.066406 1144.375 Z M 146.066406 1144.375 " fill-opacity="1" fill-rule="nonzero"/></g><g clip-path="url(#60f139c8e1)"><path fill="#355cb0" d="M 31.378906 1394.980469 C 297.742188 970.582031 673.8125 779.234375 1256.472656 821.933594 C 1133.566406 837.621094 1019.746094 863.265625 916.265625 897.128906 L 1138.421875 1394.855469 L 957.359375 1394.855469 L 761.976562 957.507812 C 535.339844 1061.585938 373.078125 1213.21875 290.644531 1394.855469 L 31.378906 1394.855469 Z M 31.378906 1394.980469 " fill-opacity="1" fill-rule="evenodd"/></g><g clip-path="url(#e47eb7e32f)"><path fill="#0fc7d4" d="M 146.0625 1144.578125 L 510.777344 327.234375 L 586.238281 158.257812 L 661.695312 327.234375 L 860.554688 773.011719 C 803.648438 781.230469 748.363281 792.5625 694.820312 807.132812 L 586.238281 563.820312 L 428.96875 916.707031 C 326.613281 974.859375 232.351562 1050.320312 146.0625 1144.578125 Z M 146.0625 1144.578125 " fill-opacity="1" fill-rule="nonzero"/></g><g clip-path="url(#64892dca8e)"><path fill="#0843c4" d="M 31.378906 1395.238281 C 297.726562 970.75 673.773438 779.363281 1256.402344 822.074219 C 1133.5 837.761719 1019.691406 863.414062 916.214844 897.285156 L 1138.359375 1395.113281 L 957.304688 1395.113281 L 761.933594 957.675781 C 535.308594 1061.773438 373.058594 1213.4375 290.628906 1395.113281 L 31.378906 1395.113281 Z M 31.378906 1395.238281 " fill-opacity="1" fill-rule="evenodd"/></g></svg>